# xmcd
#
# Track frame offsets:
#	150
#	20149
#	40312
#	55108
#	71845
#	84973
#	116856
#	133175
#	157740
#	159981
#
# Disc length: 2677 seconds
#
# Revision: 0
# Processed by: cddbd v1.5.2PL0 Copyright (c) Steve Scherf et al.
# Submitted via: dBpowerAMP V4.0
#
DISCID=810a730a
DTITLE=Miles From Nowhere - Miles From Nowhere
DYEAR=2006
DGENRE=Country
TTITLE0=When I Get Mean
TTITLE1=Last Gunslinger
TTITLE2=Bloodline
TTITLE3=Faces
TTITLE4=Get Somewhere
TTITLE5=I Am
TTITLE6=November
TTITLE7=Mona Sue
TTITLE8=Experienced
TTITLE9=Hard Livin Man
EXTD=
EXTT0=
EXTT1=
EXTT2=
EXTT3=
EXTT4=
EXTT5=
EXTT6=
EXTT7=
EXTT8=
EXTT9=
PLAYORDER=
